<svg width="16" height="16" viewBox="0 0 16 16" fill="none" xmlns="http://www.w3.org/2000/svg">
<g clip-path="url(#clip0_6702_55)">
<path d="M15.6218 9.1018C15.4582 9.06091 15.2946 9.1018 15.1515 9.20404C14.6199 9.65388 14.0064 10.0219 13.3317 10.2673C12.6978 10.5127 12.0026 10.6354 11.2665 10.6354C9.61025 10.6354 8.09715 9.96059 7.01344 8.87688C5.92973 7.79317 5.25497 6.28007 5.25497 4.62383C5.25497 3.92862 5.37765 3.25386 5.58213 2.64044C5.80705 1.98612 6.1342 1.39315 6.5636 0.881967C6.74762 0.657046 6.70673 0.329888 6.48181 0.145862C6.33868 0.0436251 6.1751 0.00273039 6.01152 0.0436251C4.2735 0.513914 2.76039 1.55673 1.67668 2.94715C0.633868 4.31712 0 6.01425 0 7.87496C0 10.1037 0.899683 12.128 2.37189 13.6002C3.8441 15.0724 5.86839 15.9721 8.09715 15.9721C9.97831 15.9721 11.7163 15.3178 13.1068 14.2341C14.5176 13.1299 15.54 11.5555 15.9694 9.75612C16.0716 9.44941 15.908 9.16314 15.6218 9.1018ZM12.4933 13.3753C11.3074 14.3159 9.79428 14.8884 8.13805 14.8884C6.19555 14.8884 4.43707 14.091 3.16934 12.8232C1.9016 11.5555 1.10416 9.79701 1.10416 7.85451C1.10416 6.23917 1.63579 4.76696 2.55592 3.58102C3.18979 2.76312 3.98723 2.08836 4.90736 1.61807C4.80513 1.84299 4.70289 2.06791 4.6211 2.31328C4.35529 3.04939 4.2326 3.82638 4.2326 4.64428C4.2326 6.58678 5.03005 8.3657 6.29778 9.63343C7.56552 10.9012 9.34444 11.6986 11.2869 11.6986C12.1457 11.6986 12.9636 11.5555 13.7202 11.2692C13.986 11.167 14.2518 11.0647 14.4972 10.9421C14.0064 11.8826 13.3317 12.721 12.4933 13.3753Z" fill="white"/>
</g>
<defs>
<clipPath id="clip0_6702_55">
<rect width="16" height="16" fill="white"/>
</clipPath>
</defs>
</svg>
