<svg width="179" height="47" viewBox="0 0 179 47" fill="none" xmlns="http://www.w3.org/2000/svg">
<path d="M6.5929 20.973V29.0349H8.4116V8H5.68354C2.95549 8 0.682115 10.2239 0.682115 14.5791C0.682115 17.7298 1.66721 19.3977 3.18293 20.3244L0 28.9422H2.12189L5.07738 20.8804H6.5929V20.973ZM6.5929 19.1198H5.6078C4.01633 19.1198 2.65231 18.0079 2.65231 14.672C2.65231 11.1509 4.09208 9.94605 5.6078 9.94605H6.5929V19.1198ZM26.9777 27.1814H25.9927V14.2086H20.3849V15.5059C20.3849 19.3977 20.2334 24.031 19.1723 27.1814H18.4145V32H20.0817V29.0349H25.2348V31.9074H26.902C26.9777 31.9074 26.9777 27.1814 26.9777 27.1814ZM35.0862 28.0155L34.6315 26.255C34.1768 26.6257 33.3432 27.2743 32.2824 27.2743C30.7668 27.2743 30.009 25.5137 30.009 22.1779H35.0862V20.8807C35.0862 15.8768 33.7979 14.0234 31.7519 14.0234C29.1754 14.0234 28.1145 17.4519 28.1145 22.2705C28.1145 26.8109 29.6301 29.2204 32.1309 29.2204C33.3432 29.2201 34.3283 28.7567 35.0862 28.0155ZM15.4592 14.2086V20.5099H12.6554V14.2086H10.8365V29.0349H12.7309V22.3631H15.5347V29.0349H17.3534V14.2086H15.4592ZM42.0578 29.0349H44.1039L40.6938 21.1583L43.725 14.2084H41.8305L38.951 21.0656V14.2086H37.0566V29.0349H38.951V21.6216L42.0578 29.0349ZM48.4992 29.2201C49.636 29.2201 50.3936 28.7567 51 28.1081L50.5453 26.4402C50.0907 26.9036 49.4085 27.3669 48.4992 27.3669C46.9837 27.3669 46.3016 25.2356 46.3016 21.529C46.3016 17.8224 47.2867 15.9692 48.5749 15.9692C49.3328 15.9692 50.0905 16.4326 50.5451 16.9885L50.7726 14.8572C50.2421 14.4865 49.6358 14.116 48.5749 14.116C45.7711 14.116 44.2554 17.0812 44.2554 21.7145C44.3312 26.7183 45.9226 29.2201 48.4992 29.2201ZM24.1737 27.1814H20.991C21.9761 24.0308 22.1278 19.4903 22.1278 16.3397V16.0616H24.2497V27.1812L24.1737 27.1814ZM31.7517 15.8766C32.8126 15.8766 33.1915 17.7298 33.1915 20.2318H30.0845C30.1605 17.6371 30.6151 15.8766 31.7517 15.8766Z" fill="white"/>
<path d="M75.492 29H72.832L65.832 19.9H63.34V29H61.24V9.904H63.34V18.164H66.028L72.188 9.988H74.708L67.848 19.004L75.492 29ZM88.4556 15.896V29H86.5516V27.068C86.0102 27.8147 85.3476 28.4027 84.5636 28.832C83.7796 29.2427 82.9209 29.448 81.9876 29.448C80.7369 29.448 79.6169 29.1493 78.6276 28.552C77.6382 27.9547 76.8636 27.124 76.3036 26.06C75.7436 24.996 75.4636 23.7827 75.4636 22.42C75.4636 21.076 75.7342 19.8813 76.2756 18.836C76.8356 17.772 77.6009 16.9413 78.5716 16.344C79.5609 15.7467 80.6809 15.448 81.9316 15.448C82.8836 15.448 83.7516 15.6627 84.5356 16.092C85.3382 16.5027 86.0102 17.0907 86.5516 17.856V15.896H88.4556ZM81.9316 27.712C82.8276 27.712 83.6209 27.488 84.3116 27.04C85.0209 26.592 85.5716 25.9667 85.9636 25.164C86.3556 24.3613 86.5516 23.456 86.5516 22.448C86.5516 21.44 86.3556 20.5347 85.9636 19.732C85.5716 18.9293 85.0209 18.304 84.3116 17.856C83.6209 17.408 82.8276 17.184 81.9316 17.184C81.0542 17.184 80.2702 17.408 79.5796 17.856C78.8889 18.304 78.3476 18.9293 77.9556 19.732C77.5636 20.516 77.3676 21.412 77.3676 22.42C77.3676 23.4467 77.5636 24.3613 77.9556 25.164C78.3476 25.9667 78.8889 26.592 79.5796 27.04C80.2702 27.488 81.0542 27.712 81.9316 27.712ZM91.3269 29V15.896H102.359V29H100.455V17.632H93.2309V29H91.3269ZM110.932 29.448C109.663 29.448 108.533 29.1493 107.544 28.552C106.555 27.9547 105.78 27.124 105.22 26.06C104.66 24.996 104.38 23.792 104.38 22.448C104.38 21.104 104.651 19.9 105.192 18.836C105.752 17.772 106.527 16.9413 107.516 16.344C108.505 15.7467 109.625 15.448 110.876 15.448C111.94 15.448 112.864 15.6813 113.648 16.148C114.451 16.596 115.179 17.24 115.832 18.08L114.432 19.172C113.517 17.8467 112.332 17.184 110.876 17.184C109.999 17.184 109.205 17.408 108.496 17.856C107.805 18.304 107.264 18.9293 106.872 19.732C106.48 20.5347 106.284 21.44 106.284 22.448C106.284 23.456 106.48 24.3613 106.872 25.164C107.264 25.9667 107.805 26.592 108.496 27.04C109.205 27.488 109.999 27.712 110.876 27.712C111.772 27.712 112.509 27.5627 113.088 27.264C113.667 26.9467 114.189 26.4893 114.656 25.892L116.14 26.928C115.524 27.6933 114.759 28.3093 113.844 28.776C112.948 29.224 111.977 29.448 110.932 29.448ZM126.768 15.896H128.56L121.476 34.6H119.572L121.644 29.252L116.268 15.896H118.256L122.596 26.76L126.768 15.896ZM128.426 27.264H129.294C130.078 27.264 130.694 26.5827 131.142 25.22C131.59 23.8387 131.814 21.748 131.814 18.948V15.896H140.438V29H138.534V17.632H133.606V19.48C133.606 22.392 133.279 24.7067 132.626 26.424C131.991 28.1413 130.852 29 129.21 29H128.426V27.264ZM155.213 15.896V29H153.309V27.068C152.767 27.8147 152.105 28.4027 151.321 28.832C150.537 29.2427 149.678 29.448 148.745 29.448C147.494 29.448 146.374 29.1493 145.385 28.552C144.395 27.9547 143.621 27.124 143.061 26.06C142.501 24.996 142.221 23.7827 142.221 22.42C142.221 21.076 142.491 19.8813 143.033 18.836C143.593 17.772 144.358 16.9413 145.329 16.344C146.318 15.7467 147.438 15.448 148.689 15.448C149.641 15.448 150.509 15.6627 151.293 16.092C152.095 16.5027 152.767 17.0907 153.309 17.856V15.896H155.213ZM148.689 27.712C149.585 27.712 150.378 27.488 151.069 27.04C151.778 26.592 152.329 25.9667 152.721 25.164C153.113 24.3613 153.309 23.456 153.309 22.448C153.309 21.44 153.113 20.5347 152.721 19.732C152.329 18.9293 151.778 18.304 151.069 17.856C150.378 17.408 149.585 17.184 148.689 17.184C147.811 17.184 147.027 17.408 146.337 17.856C145.646 18.304 145.105 18.9293 144.713 19.732C144.321 20.516 144.125 21.412 144.125 22.42C144.125 23.4467 144.321 24.3613 144.713 25.164C145.105 25.9667 145.646 26.592 146.337 27.04C147.027 27.488 147.811 27.712 148.689 27.712Z" fill="white"/>
<path d="M67.016 35.6L63.2 42.668C62.928 43.172 62.608 43.548 62.24 43.796C61.88 44.036 61.484 44.156 61.052 44.156C60.732 44.156 60.388 44.08 60.02 43.928L60.272 43.208C60.56 43.32 60.824 43.376 61.064 43.376C61.616 43.376 62.068 43.076 62.42 42.476L62.66 42.068L59.252 35.6H60.2L63.128 41.288L66.128 35.6H67.016ZM72.6373 37.688V44H71.7853V41.372C71.0573 41.692 70.3413 41.852 69.6373 41.852C68.8773 41.852 68.2853 41.68 67.8613 41.336C67.4373 40.984 67.2253 40.46 67.2253 39.764V37.688H68.0773V39.716C68.0773 40.188 68.2293 40.548 68.5333 40.796C68.8373 41.036 69.2573 41.156 69.7933 41.156C70.3853 41.156 71.0493 41 71.7853 40.688V37.688H72.6373ZM80.4568 41.108H75.1768C75.2248 41.764 75.4768 42.296 75.9328 42.704C76.3888 43.104 76.9648 43.304 77.6608 43.304C78.0528 43.304 78.4128 43.236 78.7408 43.1C79.0688 42.956 79.3528 42.748 79.5928 42.476L80.0728 43.028C79.7928 43.364 79.4408 43.62 79.0168 43.796C78.6008 43.972 78.1408 44.06 77.6368 44.06C76.9888 44.06 76.4128 43.924 75.9088 43.652C75.4128 43.372 75.0248 42.988 74.7448 42.5C74.4648 42.012 74.3248 41.46 74.3248 40.844C74.3248 40.228 74.4568 39.676 74.7208 39.188C74.9928 38.7 75.3608 38.32 75.8248 38.048C76.2968 37.776 76.8248 37.64 77.4088 37.64C77.9928 37.64 78.5168 37.776 78.9808 38.048C79.4448 38.32 79.8088 38.7 80.0728 39.188C80.3368 39.668 80.4688 40.22 80.4688 40.844L80.4568 41.108ZM77.4088 38.372C76.8008 38.372 76.2888 38.568 75.8728 38.96C75.4648 39.344 75.2328 39.848 75.1768 40.472H79.6528C79.5968 39.848 79.3608 39.344 78.9448 38.96C78.5368 38.568 78.0248 38.372 77.4088 38.372ZM85.2948 37.844C85.8788 37.844 86.3988 37.976 86.8548 38.24C87.3188 38.496 87.6788 38.86 87.9348 39.332C88.1908 39.796 88.3188 40.328 88.3188 40.928C88.3188 41.544 88.1828 42.092 87.9108 42.572C87.6468 43.044 87.2748 43.412 86.7948 43.676C86.3148 43.94 85.7628 44.072 85.1388 44.072C84.0908 44.072 83.2788 43.704 82.7028 42.968C82.1268 42.232 81.8388 41.216 81.8388 39.92C81.8388 38.568 82.0948 37.532 82.6068 36.812C83.1268 36.092 83.9348 35.604 85.0308 35.348L87.8628 34.7L88.0068 35.48L85.3428 36.092C84.4388 36.292 83.7748 36.648 83.3508 37.16C82.9268 37.664 82.6948 38.412 82.6548 39.404C82.9108 38.916 83.2668 38.536 83.7228 38.264C84.1788 37.984 84.7028 37.844 85.2948 37.844ZM85.1628 43.364C85.6028 43.364 85.9948 43.264 86.3388 43.064C86.6908 42.856 86.9628 42.568 87.1548 42.2C87.3548 41.832 87.4548 41.416 87.4548 40.952C87.4548 40.488 87.3588 40.08 87.1668 39.728C86.9748 39.376 86.7028 39.104 86.3508 38.912C86.0068 38.712 85.6108 38.612 85.1628 38.612C84.7148 38.612 84.3148 38.712 83.9628 38.912C83.6188 39.104 83.3468 39.376 83.1468 39.728C82.9548 40.08 82.8588 40.488 82.8588 40.952C82.8588 41.416 82.9548 41.832 83.1468 42.2C83.3468 42.568 83.6228 42.856 83.9748 43.064C84.3268 43.264 84.7228 43.364 85.1628 43.364ZM90.025 37.688H90.877V40.484H94.849V37.688H95.701V44H94.849V41.216H90.877V44H90.025V37.688ZM100.655 39.92C101.447 39.928 102.051 40.104 102.467 40.448C102.883 40.792 103.091 41.288 103.091 41.936C103.091 42.608 102.867 43.124 102.419 43.484C101.971 43.844 101.331 44.02 100.499 44.012L98.0026 44V37.688H98.8546V39.896L100.655 39.92ZM104.147 37.688H104.999V44H104.147V37.688ZM100.451 43.364C101.035 43.372 101.475 43.256 101.771 43.016C102.075 42.768 102.227 42.408 102.227 41.936C102.227 41.472 102.079 41.128 101.783 40.904C101.487 40.68 101.043 40.564 100.451 40.556L98.8546 40.532V43.34L100.451 43.364ZM107.304 37.688H108.156V42.704L112.368 37.688H113.124V44H112.272V38.984L108.072 44H107.304V37.688ZM110.172 36.776C109.628 36.776 109.196 36.64 108.876 36.368C108.556 36.096 108.392 35.712 108.384 35.216H108.996C109.004 35.528 109.116 35.78 109.332 35.972C109.548 36.156 109.828 36.248 110.172 36.248C110.516 36.248 110.796 36.156 111.012 35.972C111.236 35.78 111.352 35.528 111.36 35.216H111.972C111.964 35.712 111.796 36.096 111.468 36.368C111.148 36.64 110.716 36.776 110.172 36.776ZM122.907 38.444H120.519V44H119.667V38.444H117.279V37.688H122.907V38.444ZM127.271 37.64C127.863 37.64 128.399 37.776 128.879 38.048C129.359 38.312 129.735 38.688 130.007 39.176C130.279 39.664 130.415 40.22 130.415 40.844C130.415 41.476 130.279 42.036 130.007 42.524C129.735 43.012 129.359 43.392 128.879 43.664C128.407 43.928 127.871 44.06 127.271 44.06C126.759 44.06 126.295 43.956 125.879 43.748C125.471 43.532 125.135 43.22 124.871 42.812V46.328H124.019V37.688H124.835V38.936C125.091 38.52 125.427 38.2 125.843 37.976C126.267 37.752 126.743 37.64 127.271 37.64ZM127.211 43.304C127.651 43.304 128.051 43.204 128.411 43.004C128.771 42.796 129.051 42.504 129.251 42.128C129.459 41.752 129.563 41.324 129.563 40.844C129.563 40.364 129.459 39.94 129.251 39.572C129.051 39.196 128.771 38.904 128.411 38.696C128.051 38.488 127.651 38.384 127.211 38.384C126.763 38.384 126.359 38.488 125.999 38.696C125.647 38.904 125.367 39.196 125.159 39.572C124.959 39.94 124.859 40.364 124.859 40.844C124.859 41.324 124.959 41.752 125.159 42.128C125.367 42.504 125.647 42.796 125.999 43.004C126.359 43.204 126.763 43.304 127.211 43.304ZM137.645 41.108H132.365C132.413 41.764 132.665 42.296 133.121 42.704C133.577 43.104 134.153 43.304 134.849 43.304C135.241 43.304 135.601 43.236 135.929 43.1C136.257 42.956 136.541 42.748 136.781 42.476L137.261 43.028C136.981 43.364 136.629 43.62 136.205 43.796C135.789 43.972 135.329 44.06 134.825 44.06C134.177 44.06 133.601 43.924 133.097 43.652C132.601 43.372 132.213 42.988 131.933 42.5C131.653 42.012 131.513 41.46 131.513 40.844C131.513 40.228 131.645 39.676 131.909 39.188C132.181 38.7 132.549 38.32 133.013 38.048C133.485 37.776 134.013 37.64 134.597 37.64C135.181 37.64 135.705 37.776 136.169 38.048C136.633 38.32 136.997 38.7 137.261 39.188C137.525 39.668 137.657 40.22 137.657 40.844L137.645 41.108ZM134.597 38.372C133.989 38.372 133.477 38.568 133.061 38.96C132.653 39.344 132.421 39.848 132.365 40.472H136.841C136.785 39.848 136.549 39.344 136.133 38.96C135.725 38.568 135.213 38.372 134.597 38.372ZM139.423 37.688H140.275V40.484H144.247V37.688H145.099V44H144.247V41.216H140.275V44H139.423V37.688ZM149.573 37.64C150.397 37.64 151.029 37.848 151.469 38.264C151.909 38.672 152.129 39.28 152.129 40.088V44H151.313V43.016C151.121 43.344 150.837 43.6 150.461 43.784C150.093 43.968 149.653 44.06 149.141 44.06C148.437 44.06 147.877 43.892 147.461 43.556C147.045 43.22 146.837 42.776 146.837 42.224C146.837 41.688 147.029 41.256 147.413 40.928C147.805 40.6 148.425 40.436 149.273 40.436H151.277V40.052C151.277 39.508 151.125 39.096 150.821 38.816C150.517 38.528 150.073 38.384 149.489 38.384C149.089 38.384 148.705 38.452 148.337 38.588C147.969 38.716 147.653 38.896 147.389 39.128L147.005 38.492C147.325 38.22 147.709 38.012 148.157 37.868C148.605 37.716 149.077 37.64 149.573 37.64ZM149.273 43.388C149.753 43.388 150.165 43.28 150.509 43.064C150.853 42.84 151.109 42.52 151.277 42.104V41.072H149.297C148.217 41.072 147.677 41.448 147.677 42.2C147.677 42.568 147.817 42.86 148.097 43.076C148.377 43.284 148.769 43.388 149.273 43.388ZM159.809 41.192H158.441V44H157.589V41.192H156.221L154.289 44H153.269L155.537 40.748L153.449 37.688H154.373L156.221 40.46H157.589V37.688H158.441V40.46H159.809L161.669 37.688H162.593L160.505 40.76L162.773 44H161.753L159.809 41.192ZM169.368 41.108H164.088C164.136 41.764 164.388 42.296 164.844 42.704C165.3 43.104 165.876 43.304 166.572 43.304C166.964 43.304 167.324 43.236 167.652 43.1C167.98 42.956 168.264 42.748 168.504 42.476L168.984 43.028C168.704 43.364 168.352 43.62 167.928 43.796C167.512 43.972 167.052 44.06 166.548 44.06C165.9 44.06 165.324 43.924 164.82 43.652C164.324 43.372 163.936 42.988 163.656 42.5C163.376 42.012 163.236 41.46 163.236 40.844C163.236 40.228 163.368 39.676 163.632 39.188C163.904 38.7 164.272 38.32 164.736 38.048C165.208 37.776 165.736 37.64 166.32 37.64C166.904 37.64 167.428 37.776 167.892 38.048C168.356 38.32 168.72 38.7 168.984 39.188C169.248 39.668 169.38 40.22 169.38 40.844L169.368 41.108ZM166.32 38.372C165.712 38.372 165.2 38.568 164.784 38.96C164.376 39.344 164.144 39.848 164.088 40.472H168.564C168.508 39.848 168.272 39.344 167.856 38.96C167.448 38.568 166.936 38.372 166.32 38.372ZM165.252 36.428C165.108 36.428 164.984 36.38 164.88 36.284C164.784 36.188 164.736 36.064 164.736 35.912C164.736 35.768 164.784 35.648 164.88 35.552C164.984 35.448 165.108 35.396 165.252 35.396C165.388 35.396 165.508 35.448 165.612 35.552C165.716 35.648 165.768 35.768 165.768 35.912C165.768 36.056 165.716 36.18 165.612 36.284C165.516 36.38 165.396 36.428 165.252 36.428ZM167.388 36.428C167.244 36.428 167.12 36.38 167.016 36.284C166.92 36.18 166.872 36.056 166.872 35.912C166.872 35.768 166.924 35.648 167.028 35.552C167.132 35.448 167.252 35.396 167.388 35.396C167.532 35.396 167.652 35.448 167.748 35.552C167.852 35.648 167.904 35.768 167.904 35.912C167.904 36.064 167.852 36.188 167.748 36.284C167.652 36.38 167.532 36.428 167.388 36.428ZM174.398 37.64C174.99 37.64 175.526 37.776 176.006 38.048C176.486 38.312 176.862 38.688 177.134 39.176C177.406 39.664 177.542 40.22 177.542 40.844C177.542 41.476 177.406 42.036 177.134 42.524C176.862 43.012 176.486 43.392 176.006 43.664C175.534 43.928 174.998 44.06 174.398 44.06C173.886 44.06 173.422 43.956 173.006 43.748C172.598 43.532 172.262 43.22 171.998 42.812V46.328H171.146V37.688H171.962V38.936C172.218 38.52 172.554 38.2 172.97 37.976C173.394 37.752 173.87 37.64 174.398 37.64ZM174.338 43.304C174.778 43.304 175.178 43.204 175.538 43.004C175.898 42.796 176.178 42.504 176.378 42.128C176.586 41.752 176.69 41.324 176.69 40.844C176.69 40.364 176.586 39.94 176.378 39.572C176.178 39.196 175.898 38.904 175.538 38.696C175.178 38.488 174.778 38.384 174.338 38.384C173.89 38.384 173.486 38.488 173.126 38.696C172.774 38.904 172.494 39.196 172.286 39.572C172.086 39.94 171.986 40.364 171.986 40.844C171.986 41.324 172.086 41.752 172.286 42.128C172.494 42.504 172.774 42.796 173.126 43.004C173.486 43.204 173.89 43.304 174.338 43.304Z" fill="white"/>
</svg>
